<?xml version='1.0' encoding='UTF-8'?>
<svg width="31mm" height="31mm" version="1.1" viewBox="0 0 31 31" xmlns="http://www.w3.org/2000/svg"><path d="M1,1H2V2H1zM2,1H3V2H2zM3,1H4V2H3zM4,1H5V2H4zM5,1H6V2H5zM6,1H7V2H6zM7,1H8V2H7zM10,1H11V2H10zM11,1H12V2H11zM13,1H14V2H13zM14,1H15V2H14zM17,1H18V2H17zM18,1H19V2H18zM20,1H21V2H20zM23,1H24V2H23zM24,1H25V2H24zM25,1H26V2H25zM26,1H27V2H26zM27,1H28V2H27zM28,1H29V2H28zM29,1H30V2H29zM1,2H2V3H1zM7,2H8V3H7zM9,2H10V3H9zM12,2H13V3H12zM13,2H14V3H13zM15,2H16V3H15zM16,2H17V3H16zM17,2H18V3H17zM18,2H19V3H18zM20,2H21V3H20zM21,2H22V3H21zM23,2H24V3H23zM29,2H30V3H29zM1,3H2V4H1zM3,3H4V4H3zM4,3H5V4H4zM5,3H6V4H5zM7,3H8V4H7zM10,3H11V4H10zM12,3H13V4H12zM14,3H15V4H14zM15,3H16V4H15zM17,3H18V4H17zM20,3H21V4H20zM23,3H24V4H23zM25,3H26V4H25zM26,3H27V4H26zM27,3H28V4H27zM29,3H30V4H29zM1,4H2V5H1zM3,4H4V5H3zM4,4H5V5H4zM5,4H6V5H5zM7,4H8V5H7zM10,4H11V5H10zM12,4H13V5H12zM13,4H14V5H13zM14,4H15V5H14zM15,4H16V5H15zM16,4H17V5H16zM19,4H20V5H19zM23,4H24V5H23zM25,4H26V5H25zM26,4H27V5H26zM27,4H28V5H27zM29,4H30V5H29zM1,5H2V6H1zM3,5H4V6H3zM4,5H5V6H4zM5,5H6V6H5zM7,5H8V6H7zM9,5H10V6H9zM11,5H12V6H11zM15,5H16V6H15zM19,5H20V6H19zM20,5H21V6H20zM21,5H22V6H21zM23,5H24V6H23zM25,5H26V6H25zM26,5H27V6H26zM27,5H28V6H27zM29,5H30V6H29zM1,6H2V7H1zM7,6H8V7H7zM13,6H14V7H13zM14,6H15V7H14zM18,6H19V7H18zM20,6H21V7H20zM23,6H24V7H23zM29,6H30V7H29zM1,7H2V8H1zM2,7H3V8H2zM3,7H4V8H3zM4,7H5V8H4zM5,7H6V8H5zM6,7H7V8H6zM7,7H8V8H7zM9,7H10V8H9zM11,7H12V8H11zM13,7H14V8H13zM15,7H16V8H15zM17,7H18V8H17zM19,7H20V8H19zM21,7H22V8H21zM23,7H24V8H23zM24,7H25V8H24zM25,7H26V8H25zM26,7H27V8H26zM27,7H28V8H27zM28,7H29V8H28zM29,7H30V8H29zM12,8H13V9H12zM14,8H15V9H14zM15,8H16V9H15zM17,8H18V9H17zM18,8H19V9H18zM19,8H20V9H19zM1,9H2V10H1zM3,9H4V10H3zM5,9H6V10H5zM7,9H8V10H7zM10,9H11V10H10zM11,9H12V10H11zM13,9H14V10H13zM15,9H16V10H15zM16,9H17V10H16zM18,9H19V10H18zM25,9H26V10H25zM28,9H29V10H28zM1,10H2V11H1zM3,10H4V11H3zM4,10H5V11H4zM5,10H6V11H5zM6,10H7V11H6zM8,10H9V11H8zM12,10H13V11H12zM15,10H16V11H15zM16,10H17V11H16zM20,10H21V11H20zM21,10H22V11H21zM23,10H24V11H23zM26,10H27V11H26zM29,10H30V11H29zM4,11H5V12H4zM5,11H6V12H5zM7,11H8V12H7zM9,11H10V12H9zM10,11H11V12H10zM12,11H13V12H12zM13,11H14V12H13zM14,11H15V12H14zM21,11H22V12H21zM22,11H23V12H22zM23,11H24V12H23zM27,11H28V12H27zM28,11H29V12H28zM29,11H30V12H29zM1,12H2V13H1zM2,12H3V13H2zM4,12H5V13H4zM5,12H6V13H5zM6,12H7V13H6zM10,12H11V13H10zM12,12H13V13H12zM16,12H17V13H16zM18,12H19V13H18zM19,12H20V13H19zM20,12H21V13H20zM21,12H22V13H21zM23,12H24V13H23zM25,12H26V13H25zM28,12H29V13H28zM2,13H3V14H2zM4,13H5V14H4zM7,13H8V14H7zM9,13H10V14H9zM10,13H11V14H10zM11,13H12V14H11zM13,13H14V14H13zM17,13H18V14H17zM18,13H19V14H18zM23,13H24V14H23zM26,13H27V14H26zM28,13H29V14H28zM29,13H30V14H29zM2,14H3V15H2zM3,14H4V15H3zM4,14H5V15H4zM6,14H7V15H6zM8,14H9V15H8zM9,14H10V15H9zM10,14H11V15H10zM11,14H12V15H11zM12,14H13V15H12zM14,14H15V15H14zM16,14H17V15H16zM17,14H18V15H17zM20,14H21V15H20zM21,14H22V15H21zM23,14H24V15H23zM24,14H25V15H24zM26,14H27V15H26zM29,14H30V15H29zM2,15H3V16H2zM4,15H5V16H4zM6,15H7V16H6zM7,15H8V16H7zM8,15H9V16H8zM10,15H11V16H10zM11,15H12V16H11zM15,15H16V16H15zM16,15H17V16H16zM17,15H18V16H17zM23,15H24V16H23zM24,15H25V16H24zM26,15H27V16H26zM28,15H29V16H28zM29,15H30V16H29zM1,16H2V17H1zM2,16H3V17H2zM3,16H4V17H3zM4,16H5V17H4zM8,16H9V17H8zM9,16H10V17H9zM12,16H13V17H12zM13,16H14V17H13zM14,16H15V17H14zM15,16H16V17H15zM17,16H18V17H17zM18,16H19V17H18zM21,16H22V17H21zM23,16H24V17H23zM26,16H27V17H26zM28,16H29V17H28zM1,17H2V18H1zM4,17H5V18H4zM6,17H7V18H6zM7,17H8V18H7zM8,17H9V18H8zM11,17H12V18H11zM12,17H13V18H12zM15,17H16V18H15zM16,17H17V18H16zM18,17H19V18H18zM19,17H20V18H19zM20,17H21V18H20zM21,17H22V18H21zM23,17H24V18H23zM24,17H25V18H24zM26,17H27V18H26zM28,17H29V18H28zM29,17H30V18H29zM2,18H3V19H2zM3,18H4V19H3zM5,18H6V19H5zM6,18H7V19H6zM9,18H10V19H9zM10,18H11V19H10zM12,18H13V19H12zM13,18H14V19H13zM15,18H16V19H15zM16,18H17V19H16zM22,18H23V19H22zM23,18H24V19H23zM26,18H27V19H26zM27,18H28V19H27zM29,18H30V19H29zM1,19H2V20H1zM4,19H5V20H4zM7,19H8V20H7zM8,19H9V20H8zM9,19H10V20H9zM10,19H11V20H10zM13,19H14V20H13zM14,19H15V20H14zM22,19H23V20H22zM24,19H25V20H24zM28,19H29V20H28zM29,19H30V20H29zM2,20H3V21H2zM3,20H4V21H3zM4,20H5V21H4zM5,20H6V21H5zM6,20H7V21H6zM8,20H9V21H8zM9,20H10V21H9zM12,20H13V21H12zM16,20H17V21H16zM18,20H19V21H18zM19,20H20V21H19zM21,20H22V21H21zM22,20H23V21H22zM23,20H24V21H23zM26,20H27V21H26zM28,20H29V21H28zM1,21H2V22H1zM5,21H6V22H5zM7,21H8V22H7zM13,21H14V22H13zM17,21H18V22H17zM18,21H19V22H18zM21,21H22V22H21zM22,21H23V22H22zM23,21H24V22H23zM24,21H25V22H24zM25,21H26V22H25zM9,22H10V23H9zM12,22H13V23H12zM14,22H15V23H14zM16,22H17V23H16zM17,22H18V23H17zM20,22H21V23H20zM21,22H22V23H21zM25,22H26V23H25zM27,22H28V23H27zM28,22H29V23H28zM29,22H30V23H29zM1,23H2V24H1zM2,23H3V24H2zM3,23H4V24H3zM4,23H5V24H4zM5,23H6V24H5zM6,23H7V24H6zM7,23H8V24H7zM10,23H11V24H10zM12,23H13V24H12zM13,23H14V24H13zM15,23H16V24H15zM16,23H17V24H16zM17,23H18V24H17zM20,23H21V24H20zM21,23H22V24H21zM23,23H24V24H23zM25,23H26V24H25zM26,23H27V24H26zM28,23H29V24H28zM29,23H30V24H29zM1,24H2V25H1zM7,24H8V25H7zM10,24H11V25H10zM11,24H12V25H11zM12,24H13V25H12zM14,24H15V25H14zM15,24H16V25H15zM17,24H18V25H17zM18,24H19V25H18zM21,24H22V25H21zM25,24H26V25H25zM26,24H27V25H26zM28,24H29V25H28zM29,24H30V25H29zM1,25H2V26H1zM3,25H4V26H3zM4,25H5V26H4zM5,25H6V26H5zM7,25H8V26H7zM9,25H10V26H9zM11,25H12V26H11zM12,25H13V26H12zM15,25H16V26H15zM16,25H17V26H16zM17,25H18V26H17zM18,25H19V26H18zM21,25H22V26H21zM22,25H23V26H22zM23,25H24V26H23zM24,25H25V26H24zM25,25H26V26H25zM28,25H29V26H28zM1,26H2V27H1zM3,26H4V27H3zM4,26H5V27H4zM5,26H6V27H5zM7,26H8V27H7zM11,26H12V27H11zM14,26H15V27H14zM15,26H16V27H15zM16,26H17V27H16zM18,26H19V27H18zM20,26H21V27H20zM21,26H22V27H21zM25,26H26V27H25zM27,26H28V27H27zM1,27H2V28H1zM3,27H4V28H3zM4,27H5V28H4zM5,27H6V28H5zM7,27H8V28H7zM9,27H10V28H9zM10,27H11V28H10zM12,27H13V28H12zM15,27H16V28H15zM21,27H22V28H21zM24,27H25V28H24zM25,27H26V28H25zM26,27H27V28H26zM29,27H30V28H29zM1,28H2V29H1zM7,28H8V29H7zM10,28H11V29H10zM12,28H13V29H12zM13,28H14V29H13zM17,28H18V29H17zM18,28H19V29H18zM21,28H22V29H21zM23,28H24V29H23zM25,28H26V29H25zM28,28H29V29H28zM1,29H2V30H1zM2,29H3V30H2zM3,29H4V30H3zM4,29H5V30H4zM5,29H6V30H5zM6,29H7V30H6zM7,29H8V30H7zM9,29H10V30H9zM10,29H11V30H10zM12,29H13V30H12zM14,29H15V30H14zM16,29H17V30H16zM17,29H18V30H17zM18,29H19V30H18zM19,29H20V30H19zM20,29H21V30H20zM21,29H22V30H21zM22,29H23V30H22zM24,29H25V30H24zM25,29H26V30H25zM26,29H27V30H26zM28,29H29V30H28zM29,29H30V30H29z" id="qr-path" fill="#000000" fill-opacity="1" fill-rule="nonzero" stroke="none" /></svg>